<?xml version="1.0" encoding="UTF-8"?>
<svg xmlns="http://www.w3.org/2000/svg" width="1200" height="180" viewBox="0 0 1200 180" role="img" aria-labelledby="title description">
  <title id="title">Predict-A-Trade Wordmark</title>
  <desc id="description">Customized Predict-A-Trade wordmark as fixed vector artwork.</desc>
  <metadata>
    Predict-A-Trade brand asset. Version 1.0. Transparent background. Vector paths only.
  </metadata>
  <path d="M 40 27.406 L 40 34.901 64.582 35.200 C 87.572 35.481, 89.256 35.626, 90.582 37.441 C 92.766 40.431, 92.416 48.584, 90 51 C 88.111 52.889, 86.667 53, 64 53 L 40 53 40 73.040 L 40 93.081 48.250 92.790 L 56.500 92.500 56.667 80.500 L 56.835 68.500 76.167 68 C 91.548 67.602, 96.114 67.163, 98.502 65.852 C 105.624 61.944, 108.008 56.392, 107.978 43.782 C 107.952 32.710, 106.102 27.706, 100.439 23.384 L 96.660 20.500 68.330 20.206 L 40 19.912 40 27.406 M 116 27.500 L 116 35 138.865 35 C 160.483 35, 161.874 35.113, 164.365 37.073 C 166.510 38.760, 167 39.977, 167 43.618 C 167 47.034, 166.420 48.671, 164.545 50.545 L 162.091 53 139.045 53 L 116 53 116 73 L 116 93 124 93 L 132 93 132 80.500 L 132 68 141.766 68 L 151.532 68 159 80.500 L 166.468 93 175.234 93 C 180.055 93, 184 92.724, 184 92.386 C 184 91.811, 174.155 75.219, 170.545 69.709 C 168.926 67.238, 168.947 67.204, 173.418 65.040 C 177.046 63.283, 178.438 61.804, 180.577 57.432 C 183.022 52.435, 183.201 51.221, 182.836 42.134 C 182.484 33.371, 182.127 31.791, 179.654 28.053 C 174.663 20.511, 172.503 20.047, 142.250 20.022 L 116 20 116 27.500 M 202.020 21.752 C 200.106 22.713, 197.499 25.059, 196.226 26.963 C 193.929 30.401, 193.914 30.626, 194.206 57.634 L 194.500 84.842 197 87.550 C 201.711 92.652, 203.879 93, 230.968 93 L 256 93 256 85.500 L 256 78 234.691 78 C 218.994 78, 212.923 77.664, 211.638 76.724 C 210.398 75.818, 209.836 73.863, 209.697 69.974 L 209.500 64.500 230 64 L 250.500 63.500 250.500 56.500 L 250.500 49.500 230.250 49.229 L 210 48.959 210 43.140 C 210 37.875, 210.242 37.211, 212.547 36.161 C 214.215 35.401, 222.156 35, 235.547 35 L 256 35 256 27.500 L 256 20 230.750 20.002 C 208.707 20.003, 205.058 20.225, 202.020 21.752 M 266 27.500 L 266 35 288.865 35 C 310.483 35, 311.874 35.113, 314.365 37.073 L 317 39.145 317 56.501 C 317 75.659, 316.778 76.402, 310.718 77.509 C 308.948 77.832, 301.875 77.962, 295 77.798 L 282.500 77.500 282.226 60.208 L 281.952 42.917 274.226 43.208 L 266.500 43.500 266.233 68.250 L 265.965 93 292.233 92.978 C 315.630 92.958, 318.937 92.754, 322.500 91.110 C 327.144 88.967, 330.364 85.738, 332.085 81.500 C 333.602 77.761, 334.190 41.422, 332.836 35.022 C 331.602 29.186, 327.749 24.244, 322.616 21.913 C 318.935 20.242, 315.724 20.042, 292.250 20.022 L 266 20 266 27.500 M 344 56.500 L 344 93 352 93 L 360 93 360 56.500 L 360 20 352 20 L 344 20 344 56.500 M 381.500 21.881 C 376.742 24.066, 374.610 26.296, 372.538 31.254 C 371.315 34.181, 371 39.356, 371 56.500 C 371 83.056, 371.986 86.399, 381.210 91.106 C 384.546 92.809, 387.344 93, 408.960 93 L 433 93 433 85.555 L 433 78.110 411.418 77.805 C 391.403 77.522, 389.733 77.359, 388.418 75.559 C 387.324 74.061, 387.003 69.722, 387.015 56.559 C 387.024 47.176, 387.370 38.966, 387.786 38.313 C 389.462 35.676, 394.725 35, 413.565 35 L 433 35 433 27.500 L 433 20 409.250 20.022 C 388.351 20.041, 385.020 20.264, 381.500 21.881 M 441.830 27.488 L 441.500 35.005 452.750 35.002 L 464 35 464 64 L 464 93 471.858 93 L 479.715 93 480.358 86.853 C 480.711 83.473, 481 70.473, 481 57.964 C 481 40.413, 481.285 35.233, 482.250 35.269 C 482.938 35.294, 488.042 35.244, 493.593 35.158 L 503.686 35 503.593 27.750 L 503.500 20.500 472.830 20.236 L 442.159 19.971 441.830 27.488 M 575.874 24.750 C 571.362 35.180, 548 91.911, 548 92.437 C 548 92.747, 551.625 93, 556.055 93 L 564.110 93 566.404 87.750 C 567.666 84.862, 572.478 72.953, 577.099 61.284 C 581.720 49.616, 585.725 40.064, 586 40.059 C 586.275 40.054, 591.186 51.964, 596.913 66.525 L 607.325 93 615.663 93 C 620.248 93, 624 92.632, 624 92.183 C 624 91.733, 619.479 80.371, 613.953 66.933 C 608.427 53.495, 601.828 37.438, 599.289 31.250 L 594.673 20 586.301 20 L 577.929 20 575.874 24.750 M 671 27.467 L 671 34.934 682.250 35.217 L 693.500 35.500 693.765 64.250 L 694.031 93 702.015 93 L 710 93 710 64 L 710 35 721.500 35 L 733 35 733 27.500 L 733 20 702 20 L 671 20 671 27.467 M 741.746 20.690 C 741.501 21.136, 741.282 24.538, 741.260 28.250 L 741.219 35 763.655 35 L 786.091 35 788.545 37.455 C 791.631 40.541, 791.895 46.672, 789.090 50.139 C 787.208 52.466, 786.856 52.507, 764.340 53 L 741.500 53.500 741.500 73 L 741.500 92.500 749.250 92.792 L 757 93.084 757 80.542 L 757 68 766.403 68 L 775.806 68 782.657 80.250 L 789.508 92.500 798.254 92.789 C 803.064 92.948, 807 92.801, 807 92.462 C 807 92.123, 803.850 86.453, 800 79.861 C 796.150 73.269, 793.021 67.566, 793.047 67.188 C 793.072 66.810, 794.957 65.584, 797.234 64.465 C 800.123 63.046, 802.095 61.080, 803.754 57.965 C 805.920 53.899, 806.104 52.509, 805.816 42.422 C 805.536 32.591, 805.224 30.942, 803.046 27.767 C 798.181 20.676, 797.538 20.536, 768.346 20.190 C 753.961 20.020, 741.991 20.245, 741.746 20.690 M 842.689 20.750 C 842.453 21.163, 839.294 28.700, 835.669 37.500 C 832.044 46.300, 825.642 61.825, 821.443 72 C 817.245 82.175, 813.579 91.063, 813.298 91.750 C 812.912 92.692, 814.871 93, 821.244 93 L 829.702 93 840.003 67.250 C 845.668 53.087, 850.575 41.182, 850.907 40.794 C 851.240 40.406, 856.261 51.881, 862.066 66.294 L 872.620 92.500 880.891 92.792 C 889.108 93.082, 889.157 93.069, 888.445 90.792 C 887.810 88.762, 883.994 79.333, 864.880 32.560 C 862.196 25.993, 860 20.481, 860 20.310 C 860 19.624, 843.087 20.054, 842.689 20.750 M 897 27.500 L 897 35 919.365 35 C 940.477 35, 941.878 35.116, 944.365 37.073 L 947 39.145 947 56.418 C 947 78.711, 948.183 77.383, 927.922 77.822 L 913.048 78.143 912.774 60.822 L 912.500 43.500 905 43.500 L 897.500 43.500 897.233 68.250 L 896.965 93 922.733 92.978 C 945.697 92.958, 948.946 92.754, 952.599 91.095 C 961.673 86.973, 963.261 81.203, 962.826 53.921 C 962.504 33.740, 962.468 33.445, 959.764 28.846 C 957.864 25.614, 955.705 23.552, 952.698 22.096 C 948.647 20.135, 946.717 20, 922.684 20 L 897 20 897 27.500 M 981.071 21.742 C 979.185 22.709, 976.710 24.770, 975.571 26.323 C 973.596 29.016, 973.500 30.409, 973.500 56.500 C 973.500 82.591, 973.596 83.984, 975.571 86.677 C 979.916 92.600, 982.028 92.997, 1009.250 92.998 L 1034 93 1034 85.500 L 1034 78 1013 78 C 993.333 78, 991.873 77.873, 990 76 C 988.533 74.533, 988 72.667, 988 69 L 988 64 1008 64 L 1028 64 1028 56.500 L 1028 49 1008 49 L 988 49 988 44 C 988 40.333, 988.533 38.467, 990 37 C 991.873 35.127, 993.333 35, 1013.044 35 L 1034.088 35 1033.794 27.750 L 1033.500 20.500 1009 20.242 C 987.270 20.014, 984.112 20.183, 981.071 21.742 M 508.835 56.629 C 508.635 60.588, 508.917 63.418, 509.535 63.654 C 510.104 63.871, 518.429 63.926, 528.035 63.775 L 545.500 63.500 545.796 56.750 L 546.091 50 527.631 50 L 509.171 50 508.835 56.629 M 628 57.023 L 628 64.045 646.250 63.773 L 664.500 63.500 664.796 56.750 L 665.091 50 646.546 50 L 628 50 628 57.023 M 582.253 79.199 C 581.167 80.513, 577.001 90.862, 577.001 92.250 C 577 92.662, 581.050 93, 586 93 C 590.950 93, 595 92.605, 595 92.122 C 595 91.639, 593.925 88.376, 592.611 84.872 C 590.364 78.877, 590.018 78.482, 586.776 78.199 C 584.820 78.029, 582.863 78.462, 582.253 79.199 M 847.255 79.250 C 846.364 80.376, 842 91.410, 842 92.538 C 842 92.792, 846.323 93, 851.607 93 C 858.872 93, 861.102 92.695, 860.753 91.750 C 860.499 91.063, 859.484 88.025, 858.498 85 C 857.512 81.975, 856.209 79.169, 855.603 78.765 C 853.818 77.576, 848.328 77.895, 847.255 79.250" transform="translate(16.539235 29.269618) scale(1.086519)" fill="#000000" fill-rule="evenodd"/>
</svg>
